{"title":"Bang Bang 2014 Hindi DVDRip 720p...MzabTM","uid":11586887,"size":1473759101,"categoryP":"video","categoryS":"hd___movies","magnet":"?xt=urn:btih:db4d50cf5157d7ff934a80a233329d0e7a474f87&amp;dn=Bang+Bang+2014+Hindi+DVDRip+720p...MzabTM&amp;tr=udp%3A%2F%2Ftracker.openbittorrent.com%3A80&amp;tr=udp%3A%2F%2Fopen.demonii.com%3A1337&amp;tr=udp%3A%2F%2Ftracker.coppersurfer.tk%3A6969&amp;tr=udp%3A%2F%2Fexodus.desync.com%3A6969","seeders":12,"leechers":0,"uploader":"MzabTM","files":2,"time":1417184071,"description":"INFO\n\nSource : DVD9\nFormat                           : MPEG-4\nFormat profile                   : Base Media\nCodec ID                         : isom\nFile size                        : 1.37 GiB\nDuration                         : 2h 36mn\nOverall bit rate                 : 1 260 Kbps\nWriting application              : Lavf56.4.101\n\nVideo\nID                               : 1\nFormat                           : AVC\nFormat/Info                      : Advanced Video Codec\nFormat profile                   : &lt;a class=&quot;__cf_email__&quot; href=&quot;/cdn-cgi/l/email-protection&quot; data-cfemail=&quot;90d8f9f7f8d0dca3bea1&quot;&gt;[email&amp;#160;protected]&lt;/a&gt;&lt;script cf-hash='f9e31' type=&quot;text/javascript&quot;&gt;\n/* &lt;![CDATA[ */!function(){try{var t=&quot;currentScript&quot;in document?document.currentScript:function(){for(var t=document.getElementsByTagName(&quot;script&quot;),e=t.length;e--;)if(t[e].getAttribute(&quot;cf-hash&quot;))return t[e]}();if(t&amp;&amp;t.previousSibling){var e,r,n,i,c=t.previousSibling,a=c.getAttribute(&quot;data-cfemail&quot;);if(a){for(e=&quot;&quot;,r=parseInt(a.substr(0,2),16),n=2;a.length-n;n+=2)i=parseInt(a.substr(n,2),16)^r,e+=String.fromCharCode(i);e=document.createTextNode(e),c.parentNode.replaceChild(e,c)}}}catch(u){}}();/* ]]&gt; */&lt;/script&gt;\nFormat settings, CABAC           : Yes\nFormat settings, ReFrames        : 4 frames\nCodec ID                         : avc1\nCodec ID/Info                    : Advanced Video Coding\nDuration                         : 2h 36mn\nDuration_LastFrame               : -8ms\nBit rate mode                    : Variable\nBit rate                         : 1 185 Kbps\nWidth                            : 1 280 pixels\nHeight                           : 544 pixels\nDisplay aspect ratio             : 2.35:1\nFrame rate mode                  : Constant\nFrame rate                       : 25.000 fps\nColor space                      : YUV\nChroma subsampling               : 4:2:0\nBit depth                        : 8 bits\nScan type                        : Progressive\nBits/(Pixel*Frame)               : 0.068\nStream size                      : 1.30 GiB (94%)\n\n\nAudio\nID                               : 2\nFormat                           : AAC\nFormat/Info                      : Advanced Audio Codec\nFormat profile                   : LC\nCodec ID                         : 40\nDuration                         : 2h 36mn\nBit rate mode                    : Constant\nBit rate                         : 64.0 Kbps\nChannel(s)                       : 1 channel\nChannel positions                : Front: C\nSampling rate                    : 44.1 KHz\nCompression mode                 : Lossy\nStream size                      : 71.4 MiB (5%)\nLanguage                         : Hindi\n\nScreenshots\n &lt;a href=&quot;\nhttp://t1.someimage.com/wUYs4fF.jpg&quot; rel=&quot;nofollow&quot; target=&quot;_NEW&quot;&gt;\nhttp://t1.someimage.com/wUYs4fF.jpg&lt;/a&gt; &lt;a href=&quot;\nhttp://t1.someimage.com/96HF2os.jpg&quot; rel=&quot;nofollow&quot; target=&quot;_NEW&quot;&gt;\nhttp://t1.someimage.com/96HF2os.jpg&lt;/a&gt; &lt;a href=&quot;\nhttp://t1.someimage.com/NwMl1oB.jpg&quot; rel=&quot;nofollow&quot; target=&quot;_NEW&quot;&gt;\nhttp://t1.someimage.com/NwMl1oB.jpg&lt;/a&gt; &lt;a href=&quot;\nhttp://t1.someimage.com/SRybhTD.jpg&quot; rel=&quot;nofollow&quot; target=&quot;_NEW&quot;&gt;\nhttp://t1.someimage.com/SRybhTD.jpg&lt;/a&gt; &lt;a href=&quot;\nhttp://t1.someimage.com/QsdKpoU.jpg&quot; rel=&quot;nofollow&quot; target=&quot;_NEW&quot;&gt;\nhttp://t1.someimage.com/QsdKpoU.jpg&lt;/a&gt; &lt;a href=&quot;\nhttp://t1.someimage.com/mF5Cede.jpg&quot; rel=&quot;nofollow&quot; target=&quot;_NEW&quot;&gt;\nhttp://t1.someimage.com/mF5Cede.jpg&lt;/a&gt; &lt;a href=&quot;\nhttp://t1.someimage.com/nkLwsPh.jpg&quot; rel=&quot;nofollow&quot; target=&quot;_NEW&quot;&gt;\nhttp://t1.someimage.com/nkLwsPh.jpg&lt;/a&gt; &lt;a href=&quot;\nhttp://t1.someimage.com/enoSqdX.jpg&quot; rel=&quot;nofollow&quot; target=&quot;_NEW&quot;&gt;\nhttp://t1.someimage.com/enoSqdX.jpg&lt;/a&gt; &lt;a href=&quot;\nhttp://t1.someimage.com/rBJSZBB.jpg&quot; rel=&quot;nofollow&quot; target=&quot;_NEW&quot;&gt;\nhttp://t1.someimage.com/rBJSZBB.jpg&lt;/a&gt; &lt;a href=&quot;\nhttp://t1.someimage.com/gH3PDLd.jpg&quot; rel=&quot;nofollow&quot; target=&quot;_NEW&quot;&gt;\nhttp://t1.someimage.com/gH3PDLd.jpg&lt;/a&gt;","torrent":{"xt":"urn:btih:db4d50cf5157d7ff934a80a233329d0e7a474f87","amp;dn":"Bang+Bang+2014+Hindi+DVDRip+720p...MzabTM","amp;tr":["udp%3A%2F%2Ftracker.openbittorrent.com%3A80","udp%3A%2F%2Fopen.demonii.com%3A1337","udp%3A%2F%2Ftracker.coppersurfer.tk%3A6969","udp%3A%2F%2Fexodus.desync.com%3A6969"],"infoHash":"db4d50cf5157d7ff934a80a233329d0e7a474f87","infoHashBuffer":{"type":"Buffer","data":[219,77,80,207,81,87,215,255,147,74,128,162,51,50,157,14,122,71,79,135]},"announce":[],"urlList":[]}}